<svg id="visual" viewBox="0 0 1920 1080" width="1920" height="1080" xmlns="http://www.w3.org/2000/svg" xmlns:xlink="http://www.w3.org/1999/xlink" version="1.1"><path d="M0 23L53.3 23C106.7 23 213.3 23 320 28.3C426.7 33.7 533.3 44.3 640 51.5C746.7 58.7 853.3 62.3 960 60.5C1066.7 58.7 1173.3 51.3 1280 49.5C1386.7 47.7 1493.3 51.3 1600 53.2C1706.7 55 1813.3 55 1866.7 55L1920 55L1920 0L1866.7 0C1813.3 0 1706.7 0 1600 0C1493.3 0 1386.7 0 1280 0C1173.3 0 1066.7 0 960 0C853.3 0 746.7 0 640 0C533.3 0 426.7 0 320 0C213.3 0 106.7 0 53.3 0L0 0Z" fill="#102866"></path><path d="M0 87L53.3 85.3C106.7 83.7 213.3 80.3 320 85.8C426.7 91.3 533.3 105.7 640 107.3C746.7 109 853.3 98 960 89C1066.7 80 1173.3 73 1280 73C1386.7 73 1493.3 80 1600 81.8C1706.7 83.7 1813.3 80.3 1866.7 78.7L1920 77L1920 53L1866.7 53C1813.3 53 1706.7 53 1600 51.2C1493.3 49.3 1386.7 45.7 1280 47.5C1173.3 49.3 1066.7 56.7 960 58.5C853.3 60.3 746.7 56.7 640 49.5C533.3 42.3 426.7 31.7 320 26.3C213.3 21 106.7 21 53.3 21L0 21Z" fill="#2e3974"></path><path d="M0 131L53.3 129.2C106.7 127.3 213.3 123.7 320 129C426.7 134.3 533.3 148.7 640 157.7C746.7 166.7 853.3 170.3 960 159.5C1066.7 148.7 1173.3 123.3 1280 123.3C1386.7 123.3 1493.3 148.7 1600 154.2C1706.7 159.7 1813.3 145.3 1866.7 138.2L1920 131L1920 75L1866.7 76.7C1813.3 78.3 1706.7 81.7 1600 79.8C1493.3 78 1386.7 71 1280 71C1173.3 71 1066.7 78 960 87C853.3 96 746.7 107 640 105.3C533.3 103.7 426.7 89.3 320 83.8C213.3 78.3 106.7 81.7 53.3 83.3L0 85Z" fill="#454b83"></path><path d="M0 303L53.3 283.3C106.7 263.7 213.3 224.3 320 215.3C426.7 206.3 533.3 227.7 640 254.7C746.7 281.7 853.3 314.3 960 316.2C1066.7 318 1173.3 289 1280 287.2C1386.7 285.3 1493.3 310.7 1600 319.7C1706.7 328.7 1813.3 321.3 1866.7 317.7L1920 314L1920 129L1866.7 136.2C1813.3 143.3 1706.7 157.7 1600 152.2C1493.3 146.7 1386.7 121.3 1280 121.3C1173.3 121.3 1066.7 146.7 960 157.5C853.3 168.3 746.7 164.7 640 155.7C533.3 146.7 426.7 132.3 320 127C213.3 121.7 106.7 125.3 53.3 127.2L0 129Z" fill="#5a5e91"></path><path d="M0 401L53.3 383C106.7 365 213.3 329 320 323.5C426.7 318 533.3 343 640 359.2C746.7 375.3 853.3 382.7 960 377.3C1066.7 372 1173.3 354 1280 357.5C1386.7 361 1493.3 386 1600 396.8C1706.7 407.7 1813.3 404.3 1866.7 402.7L1920 401L1920 312L1866.7 315.7C1813.3 319.3 1706.7 326.7 1600 317.7C1493.3 308.7 1386.7 283.3 1280 285.2C1173.3 287 1066.7 316 960 314.2C853.3 312.3 746.7 279.7 640 252.7C533.3 225.7 426.7 204.3 320 213.3C213.3 222.3 106.7 261.7 53.3 281.3L0 301Z" fill="#7072a0"></path><path d="M0 422L53.3 407.7C106.7 393.3 213.3 364.7 320 364.7C426.7 364.7 533.3 393.3 640 411.3C746.7 429.3 853.3 436.7 960 425.8C1066.7 415 1173.3 386 1280 389.5C1386.7 393 1493.3 429 1600 445.3C1706.7 461.7 1813.3 458.3 1866.7 456.7L1920 455L1920 399L1866.7 400.7C1813.3 402.3 1706.7 405.7 1600 394.8C1493.3 384 1386.7 359 1280 355.5C1173.3 352 1066.7 370 960 375.3C853.3 380.7 746.7 373.3 640 357.2C533.3 341 426.7 316 320 321.5C213.3 327 106.7 363 53.3 381L0 399Z" fill="#8586af"></path><path d="M0 509L53.3 485.5C106.7 462 213.3 415 320 407.7C426.7 400.3 533.3 432.7 640 457.8C746.7 483 853.3 501 960 492C1066.7 483 1173.3 447 1280 452.5C1386.7 458 1493.3 505 1600 526.7C1706.7 548.3 1813.3 544.7 1866.7 542.8L1920 541L1920 453L1866.7 454.7C1813.3 456.3 1706.7 459.7 1600 443.3C1493.3 427 1386.7 391 1280 387.5C1173.3 384 1066.7 413 960 423.8C853.3 434.7 746.7 427.3 640 409.3C533.3 391.3 426.7 362.7 320 362.7C213.3 362.7 106.7 391.3 53.3 405.7L0 420Z" fill="#9b9bbe"></path><path d="M0 606L53.3 579C106.7 552 213.3 498 320 481.8C426.7 465.7 533.3 487.3 640 516.2C746.7 545 853.3 581 960 577.3C1066.7 573.7 1173.3 530.3 1280 533.8C1386.7 537.3 1493.3 587.7 1600 609.3C1706.7 631 1813.3 624 1866.7 620.5L1920 617L1920 539L1866.7 540.8C1813.3 542.7 1706.7 546.3 1600 524.7C1493.3 503 1386.7 456 1280 450.5C1173.3 445 1066.7 481 960 490C853.3 499 746.7 481 640 455.8C533.3 430.7 426.7 398.3 320 405.7C213.3 413 106.7 460 53.3 483.5L0 507Z" fill="#b0b1cd"></path><path d="M0 660L53.3 643.8C106.7 627.7 213.3 595.3 320 588.2C426.7 581 533.3 599 640 631.3C746.7 663.7 853.3 710.3 960 712C1066.7 713.7 1173.3 670.3 1280 665C1386.7 659.7 1493.3 692.3 1600 710.3C1706.7 728.3 1813.3 731.7 1866.7 733.3L1920 735L1920 615L1866.7 618.5C1813.3 622 1706.7 629 1600 607.3C1493.3 585.7 1386.7 535.3 1280 531.8C1173.3 528.3 1066.7 571.7 960 575.3C853.3 579 746.7 543 640 514.2C533.3 485.3 426.7 463.7 320 479.8C213.3 496 106.7 550 53.3 577L0 604Z" fill="#c7c7dd"></path><path d="M0 887L53.3 861.7C106.7 836.3 213.3 785.7 320 776.7C426.7 767.7 533.3 800.3 640 823.8C746.7 847.3 853.3 861.7 960 863.3C1066.7 865 1173.3 854 1280 866.5C1386.7 879 1493.3 915 1600 933C1706.7 951 1813.3 951 1866.7 951L1920 951L1920 733L1866.7 731.3C1813.3 729.7 1706.7 726.3 1600 708.3C1493.3 690.3 1386.7 657.7 1280 663C1173.3 668.3 1066.7 711.7 960 710C853.3 708.3 746.7 661.7 640 629.3C533.3 597 426.7 579 320 586.2C213.3 593.3 106.7 625.7 53.3 641.8L0 658Z" fill="#ddddec"></path><path d="M0 1081L53.3 1081C106.7 1081 213.3 1081 320 1081C426.7 1081 533.3 1081 640 1081C746.7 1081 853.3 1081 960 1081C1066.7 1081 1173.3 1081 1280 1081C1386.7 1081 1493.3 1081 1600 1081C1706.7 1081 1813.3 1081 1866.7 1081L1920 1081L1920 949L1866.7 949C1813.3 949 1706.7 949 1600 931C1493.3 913 1386.7 877 1280 864.5C1173.3 852 1066.7 863 960 861.3C853.3 859.7 746.7 845.3 640 821.8C533.3 798.3 426.7 765.7 320 774.7C213.3 783.7 106.7 834.3 53.3 859.7L0 885Z" fill="#f4f4fc"></path></svg>